<svg xmlns="http://www.w3.org/2000/svg" width="900" height="238" viewBox="0 0 900 238" role="img">
  <defs>
    <linearGradient id="veil" x1="0%" y1="0%" x2="0%" y2="100%">
      <stop offset="0%" stop-color="#0B65D8" stop-opacity="0.10" />
      <stop offset="100%" stop-color="#0B65D8" stop-opacity="0" />
    </linearGradient>
    <linearGradient id="shine" x1="0%" y1="0%" x2="100%" y2="0%">
      <stop offset="0%" stop-color="#1F2328" stop-opacity="0" />
      <stop offset="50%" stop-color="#1F2328" stop-opacity="0.14" />
      <stop offset="100%" stop-color="#1F2328" stop-opacity="0" />
    </linearGradient>
    <clipPath id="wordmark"><text x="30" y="162" textLength="840" lengthAdjust="spacing" font-family="-apple-system, BlinkMacSystemFont, 'Segoe UI', Helvetica, Arial, sans-serif" font-size="84" font-weight="800" >CLYDE H. GEVERO</text></clipPath></defs>
  <rect x="0.5" y="0.5" width="899" height="237" rx="10" fill="#FFFFFF" stroke="#D8DEE6" />
  <g stroke="#D8DEE6" stroke-width="0.5" opacity="0.45"><line x1="30" y1="0" x2="30" y2="238" /><line x1="60" y1="0" x2="60" y2="238" /><line x1="90" y1="0" x2="90" y2="238" /><line x1="120" y1="0" x2="120" y2="238" /><line x1="150" y1="0" x2="150" y2="238" /><line x1="180" y1="0" x2="180" y2="238" /><line x1="210" y1="0" x2="210" y2="238" /><line x1="240" y1="0" x2="240" y2="238" /><line x1="270" y1="0" x2="270" y2="238" /><line x1="300" y1="0" x2="300" y2="238" /><line x1="330" y1="0" x2="330" y2="238" /><line x1="360" y1="0" x2="360" y2="238" /><line x1="390" y1="0" x2="390" y2="238" /><line x1="420" y1="0" x2="420" y2="238" /><line x1="450" y1="0" x2="450" y2="238" /><line x1="480" y1="0" x2="480" y2="238" /><line x1="510" y1="0" x2="510" y2="238" /><line x1="540" y1="0" x2="540" y2="238" /><line x1="570" y1="0" x2="570" y2="238" /><line x1="600" y1="0" x2="600" y2="238" /><line x1="630" y1="0" x2="630" y2="238" /><line x1="660" y1="0" x2="660" y2="238" /><line x1="690" y1="0" x2="690" y2="238" /><line x1="720" y1="0" x2="720" y2="238" /><line x1="750" y1="0" x2="750" y2="238" /><line x1="780" y1="0" x2="780" y2="238" /><line x1="810" y1="0" x2="810" y2="238" /><line x1="840" y1="0" x2="840" y2="238" /><line x1="870" y1="0" x2="870" y2="238" /><line x1="0" y1="30" x2="900" y2="30" /><line x1="0" y1="60" x2="900" y2="60" /><line x1="0" y1="90" x2="900" y2="90" /><line x1="0" y1="120" x2="900" y2="120" /><line x1="0" y1="150" x2="900" y2="150" /><line x1="0" y1="180" x2="900" y2="180" /><line x1="0" y1="210" x2="900" y2="210" /></g>
  <rect x="0" y="0" width="900" height="140" fill="url(#veil)" />

  <text x="30" y="52" text-anchor="start" font-family="ui-monospace, SFMono-Regular, Menlo, Consolas, 'Liberation Mono', monospace" font-size="9.5" letter-spacing="2.2" fill="#59636E">FULLSTACK DEVELOPER · UI/UX DESIGNER</text>
  <text x="870" y="52" text-anchor="end" font-family="ui-monospace, SFMono-Regular, Menlo, Consolas, 'Liberation Mono', monospace" font-size="9.5" letter-spacing="2.2" fill="#59636E">CONTRIBUTIONS PER WEEK · LAST 12 MONTHS</text>

  <g clip-path="url(#wordmark)">
    <rect x="30" y="102" width="840" height="60" fill="#1F2328" opacity="0.32" />
    <rect x="30.0" y="160.2" width="16.3" height="1.8" fill="#1A7F37" /><rect x="30.0" y="160.2" width="16.3" height="1.6" fill="#1F2328" opacity="0.55" /><rect x="45.8" y="161.5" width="16.3" height="0.5" fill="#1A7F37" /><rect x="45.8" y="161.5" width="16.3" height="1.6" fill="#1F2328" opacity="0.55" /><rect x="61.7" y="161.7" width="16.3" height="0.3" fill="#1A7F37" /><rect x="61.7" y="161.7" width="16.3" height="1.6" fill="#1F2328" opacity="0.55" /><rect x="77.5" y="158.7" width="16.3" height="3.3" fill="#1A7F37" /><rect x="77.5" y="158.7" width="16.3" height="1.6" fill="#1F2328" opacity="0.55" /><rect x="109.2" y="152.2" width="16.3" height="9.8" fill="#1A7F37" /><rect x="109.2" y="152.2" width="16.3" height="1.6" fill="#1F2328" opacity="0.55" /><rect x="125.1" y="159.2" width="16.3" height="2.8" fill="#1A7F37" /><rect x="125.1" y="159.2" width="16.3" height="1.6" fill="#1F2328" opacity="0.55" /><rect x="156.8" y="161.7" width="16.3" height="0.3" fill="#1A7F37" /><rect x="156.8" y="161.7" width="16.3" height="1.6" fill="#1F2328" opacity="0.55" /><rect x="172.6" y="158.9" width="16.3" height="3.1" fill="#1A7F37" /><rect x="172.6" y="158.9" width="16.3" height="1.6" fill="#1F2328" opacity="0.55" /><rect x="188.5" y="161.0" width="16.3" height="1.0" fill="#1A7F37" /><rect x="188.5" y="161.0" width="16.3" height="1.6" fill="#1F2328" opacity="0.55" /><rect x="299.4" y="160.5" width="16.3" height="1.5" fill="#1A7F37" /><rect x="299.4" y="160.5" width="16.3" height="1.6" fill="#1F2328" opacity="0.55" /><rect x="331.1" y="158.1" width="16.3" height="3.9" fill="#1A7F37" /><rect x="331.1" y="158.1" width="16.3" height="1.6" fill="#1F2328" opacity="0.55" /><rect x="347.0" y="160.7" width="16.3" height="1.3" fill="#1A7F37" /><rect x="347.0" y="160.7" width="16.3" height="1.6" fill="#1F2328" opacity="0.55" /><rect x="362.8" y="154.5" width="16.3" height="7.5" fill="#1A7F37" /><rect x="362.8" y="154.5" width="16.3" height="1.6" fill="#1F2328" opacity="0.55" /><rect x="378.7" y="155.8" width="16.3" height="6.2" fill="#1A7F37" /><rect x="378.7" y="155.8" width="16.3" height="1.6" fill="#1F2328" opacity="0.55" /><rect x="394.5" y="160.5" width="16.3" height="1.5" fill="#1A7F37" /><rect x="394.5" y="160.5" width="16.3" height="1.6" fill="#1F2328" opacity="0.55" /><rect x="426.2" y="158.9" width="16.3" height="3.1" fill="#1A7F37" /><rect x="426.2" y="158.9" width="16.3" height="1.6" fill="#1F2328" opacity="0.55" /><rect x="442.1" y="157.4" width="16.3" height="4.6" fill="#1A7F37" /><rect x="442.1" y="157.4" width="16.3" height="1.6" fill="#1F2328" opacity="0.55" /><rect x="457.9" y="152.5" width="16.3" height="9.5" fill="#1A7F37" /><rect x="457.9" y="152.5" width="16.3" height="1.6" fill="#1F2328" opacity="0.55" /><rect x="473.8" y="157.1" width="16.3" height="4.9" fill="#1A7F37" /><rect x="473.8" y="157.1" width="16.3" height="1.6" fill="#1F2328" opacity="0.55" /><rect x="489.6" y="158.1" width="16.3" height="3.9" fill="#1A7F37" /><rect x="489.6" y="158.1" width="16.3" height="1.6" fill="#1F2328" opacity="0.55" /><rect x="505.5" y="160.2" width="16.3" height="1.8" fill="#1A7F37" /><rect x="505.5" y="160.2" width="16.3" height="1.6" fill="#1F2328" opacity="0.55" /><rect x="521.3" y="159.4" width="16.3" height="2.6" fill="#1A7F37" /><rect x="521.3" y="159.4" width="16.3" height="1.6" fill="#1F2328" opacity="0.55" /><rect x="537.2" y="149.4" width="16.3" height="12.6" fill="#1A7F37" /><rect x="537.2" y="149.4" width="16.3" height="1.6" fill="#1F2328" opacity="0.55" /><rect x="553.0" y="154.8" width="16.3" height="7.2" fill="#1A7F37" /><rect x="553.0" y="154.8" width="16.3" height="1.6" fill="#1F2328" opacity="0.55" /><rect x="568.9" y="158.4" width="16.3" height="3.6" fill="#1A7F37" /><rect x="568.9" y="158.4" width="16.3" height="1.6" fill="#1F2328" opacity="0.55" /><rect x="584.7" y="151.4" width="16.3" height="10.6" fill="#1A7F37" /><rect x="584.7" y="151.4" width="16.3" height="1.6" fill="#1F2328" opacity="0.55" /><rect x="600.6" y="155.3" width="16.3" height="6.7" fill="#1A7F37" /><rect x="600.6" y="155.3" width="16.3" height="1.6" fill="#1F2328" opacity="0.55" /><rect x="616.4" y="155.3" width="16.3" height="6.7" fill="#1A7F37" /><rect x="616.4" y="155.3" width="16.3" height="1.6" fill="#1F2328" opacity="0.55" /><rect x="632.3" y="149.6" width="16.3" height="12.4" fill="#1A7F37" /><rect x="632.3" y="149.6" width="16.3" height="1.6" fill="#1F2328" opacity="0.55" /><rect x="648.1" y="149.1" width="16.3" height="12.9" fill="#1A7F37" /><rect x="648.1" y="149.1" width="16.3" height="1.6" fill="#1F2328" opacity="0.55" /><rect x="664.0" y="144.7" width="16.3" height="17.3" fill="#1A7F37" /><rect x="664.0" y="144.7" width="16.3" height="1.6" fill="#1F2328" opacity="0.55" /><rect x="679.8" y="133.2" width="16.3" height="28.8" fill="#1A7F37" /><rect x="679.8" y="133.2" width="16.3" height="1.6" fill="#1F2328" opacity="0.55" /><rect x="695.7" y="140.9" width="16.3" height="21.1" fill="#1A7F37" /><rect x="695.7" y="140.9" width="16.3" height="1.6" fill="#1F2328" opacity="0.55" /><rect x="711.5" y="146.8" width="16.3" height="15.2" fill="#1A7F37" /><rect x="711.5" y="146.8" width="16.3" height="1.6" fill="#1F2328" opacity="0.55" /><rect x="727.4" y="147.8" width="16.3" height="14.2" fill="#1A7F37" /><rect x="727.4" y="147.8" width="16.3" height="1.6" fill="#1F2328" opacity="0.55" /><rect x="743.2" y="122.3" width="16.3" height="39.7" fill="#1A7F37" /><rect x="743.2" y="122.3" width="16.3" height="1.6" fill="#1F2328" opacity="0.55" /><rect x="759.1" y="135.7" width="16.3" height="26.3" fill="#1A7F37" /><rect x="759.1" y="135.7" width="16.3" height="1.6" fill="#1F2328" opacity="0.55" /><rect x="774.9" y="140.4" width="16.3" height="21.6" fill="#1A7F37" /><rect x="774.9" y="140.4" width="16.3" height="1.6" fill="#1F2328" opacity="0.55" /><rect x="790.8" y="131.9" width="16.3" height="30.1" fill="#1A7F37" /><rect x="790.8" y="131.9" width="16.3" height="1.6" fill="#1F2328" opacity="0.55" /><rect x="806.6" y="127.2" width="16.3" height="34.8" fill="#1A7F37" /><rect x="806.6" y="127.2" width="16.3" height="1.6" fill="#1F2328" opacity="0.55" /><rect x="822.5" y="102.0" width="16.3" height="60.0" fill="#1A7F37" /><rect x="822.5" y="102.0" width="16.3" height="1.6" fill="#1F2328" opacity="0.55" /><rect x="838.3" y="113.3" width="16.3" height="48.7" fill="#1A7F37" /><rect x="838.3" y="113.3" width="16.3" height="1.6" fill="#1F2328" opacity="0.55" /><rect x="854.2" y="156.1" width="16.3" height="5.9" fill="#1A7F37" /><rect x="854.2" y="156.1" width="16.3" height="1.6" fill="#1F2328" opacity="0.55" />
    <rect x="0" y="102" width="150" height="60" fill="url(#shine)">
      <animate attributeName="x" from="-120" to="870" dur="7s" repeatCount="indefinite" />
    </rect>
  </g>

  <!-- The blue rule is the meter's zero line, not decoration: it sits exactly on
       the baseline the weekly levels are measured from. -->
  <line x1="30" y1="165" x2="870" y2="165" stroke="#0B65D8" stroke-width="1.5" opacity="0.6" />
  <line x1="30.0" y1="165" x2="30.0" y2="171" stroke="#D8DEE6" stroke-width="1" /><line x1="240.0" y1="165" x2="240.0" y2="171" stroke="#D8DEE6" stroke-width="1" /><line x1="450.0" y1="165" x2="450.0" y2="171" stroke="#D8DEE6" stroke-width="1" /><line x1="660.0" y1="165" x2="660.0" y2="171" stroke="#D8DEE6" stroke-width="1" /><line x1="870.0" y1="165" x2="870.0" y2="171" stroke="#D8DEE6" stroke-width="1" />
  <text x="30" y="207" font-family="ui-monospace, SFMono-Regular, Menlo, Consolas, 'Liberation Mono', monospace" font-size="12.5" fill="#59636E">I design and build web and mobile products — interface, API, and the system underneath.</text>
  <!-- Says what a full letter means, and balances the description across the grid. -->
  <text x="870" y="207" text-anchor="end" font-family="ui-monospace, SFMono-Regular, Menlo, Consolas, 'Liberation Mono', monospace" font-size="9.5" letter-spacing="2.2" fill="#59636E">PEAK 233 IN ONE WEEK</text>
</svg>
